<svg width="131" height="26" viewBox="0 0 131 26" fill="none" xmlns="http://www.w3.org/2000/svg">
<g clip-path="url(#clip0_703_827)">
<path fill-rule="evenodd" clip-rule="evenodd" d="M51.4329 19.6201C46.6172 23.1741 39.6354 25.0641 33.6229 25.0641C25.1971 25.0641 17.6091 21.9493 11.8669 16.7645C11.4165 16.3569 11.8181 15.801 12.36 16.1163C18.5548 19.7212 26.2166 21.8925 34.1286 21.8925C39.4663 21.8925 45.3341 20.7843 50.733 18.4942C51.5473 18.1495 52.2302 19.0309 51.4329 19.6201Z" fill="#F79C34"/>
<path fill-rule="evenodd" clip-rule="evenodd" d="M53.4376 17.3316C52.8212 16.5431 49.3661 16.958 47.8135 17.144C47.3432 17.2009 47.2701 16.7897 47.6939 16.4922C50.4506 14.5557 54.9681 15.1145 55.493 15.7635C56.0216 16.4168 55.3534 20.9461 52.771 23.107C52.373 23.4393 51.9951 23.2621 52.1715 22.8235C52.7533 21.3714 54.0541 18.1215 53.4376 17.3316Z" fill="#F79C34"/>
<path fill-rule="evenodd" clip-rule="evenodd" d="M47.9225 2.81311V0.932C47.924 0.645552 48.1396 0.455078 48.3994 0.455816L56.8319 0.455078C57.1014 0.455078 57.3185 0.650719 57.3185 0.929785V2.5429C57.3155 2.81385 57.0874 3.16674 56.6835 3.72709L52.3152 9.96398C53.9364 9.92633 55.6514 10.1692 57.125 10.9968C57.4572 11.1836 57.5466 11.4605 57.5724 11.7314V13.7388C57.5724 14.0156 57.2697 14.3353 56.9508 14.1692C54.3558 12.8093 50.9118 12.6609 48.0414 14.1854C47.7483 14.3419 47.4419 14.0259 47.4419 13.7491V11.8407C47.4419 11.5358 47.4478 11.0131 47.7557 10.548L52.8158 3.28782L48.4098 3.28708C48.1403 3.28708 47.924 3.09513 47.9225 2.81311Z" fill="#333E47"/>
<path fill-rule="evenodd" clip-rule="evenodd" d="M17.1634 14.5644H14.5979C14.3535 14.5488 14.1586 14.3658 14.1387 14.131L14.1409 0.96396C14.1409 0.701136 14.3624 0.49073 14.6363 0.49073L17.0253 0.489991C17.2748 0.502542 17.4756 0.691539 17.4912 0.932215V2.6509H17.5399C18.1622 0.988323 19.3353 0.212402 20.916 0.212402C22.5202 0.212402 23.5265 0.988323 24.2448 2.6509C24.8672 0.988323 26.2802 0.212402 27.7885 0.212402C28.8664 0.212402 30.0395 0.656102 30.7578 1.6535C31.5722 2.76238 31.4053 4.36886 31.4053 5.7819L31.4024 14.0911C31.4024 14.3532 31.1816 14.5644 30.9077 14.5644H28.3459C28.0875 14.5481 27.8852 14.3443 27.8852 14.0919L27.8845 7.11153C27.8845 6.55782 27.9325 5.17283 27.8122 4.64645C27.6209 3.75905 27.0466 3.50951 26.3046 3.50951C25.6815 3.50951 25.0348 3.92516 24.7712 4.5896C24.5077 5.25552 24.532 6.36292 24.532 7.11153V14.0911C24.532 14.3532 24.3105 14.5644 24.0374 14.5644H21.4749C21.2172 14.5481 21.0142 14.3443 21.0142 14.0919L21.0112 7.11153C21.0112 5.64311 21.2512 3.48293 19.4313 3.48293C17.5871 3.48293 17.6595 5.58774 17.6595 7.11153L17.658 14.0911C17.658 14.3532 17.4365 14.5644 17.1634 14.5644Z" fill="#333E47"/>
<path fill-rule="evenodd" clip-rule="evenodd" d="M64.6008 2.90044C62.7094 2.90044 62.5898 5.47626 62.5898 7.08347C62.5898 8.69068 62.5662 12.1266 64.5779 12.1266C66.5654 12.1266 66.6613 9.35586 66.6613 7.66597C66.6613 6.55782 66.6126 5.22746 66.2774 4.17469C65.9902 3.25998 65.4151 2.90044 64.6008 2.90044ZM64.5779 0.212402C68.3852 0.212402 70.4442 3.48293 70.4442 7.63865C70.4442 11.6548 68.1696 14.8419 64.5779 14.8419C60.8416 14.8419 58.8062 11.5721 58.8062 7.49985C58.8062 3.39877 60.8652 0.212402 64.5779 0.212402Z" fill="#333E47"/>
<path fill-rule="evenodd" clip-rule="evenodd" d="M75.3828 14.5644H72.8262C72.57 14.5481 72.3662 14.3443 72.3662 14.0919L72.3618 0.920402C72.384 0.678988 72.5966 0.49073 72.855 0.49073L75.2344 0.489991C75.4589 0.501804 75.6434 0.653887 75.6907 0.858388V2.87239H75.7387C76.4577 1.07101 77.4625 0.212402 79.2344 0.212402C80.3838 0.212402 81.5097 0.628048 82.228 1.76424C82.8984 2.81702 82.8984 4.5896 82.8984 5.86459V14.1502C82.8703 14.3835 82.6607 14.5644 82.4067 14.5644H79.8353C79.5976 14.5496 79.4064 14.3746 79.3783 14.1502V7.00152C79.3783 5.56042 79.5467 3.45414 77.7741 3.45414C77.1517 3.45414 76.5766 3.86979 76.2894 4.50691C75.9299 5.31089 75.8819 6.11412 75.8819 7.00152V14.0911C75.8775 14.3532 75.656 14.5644 75.3828 14.5644Z" fill="#333E47"/>
<path fill-rule="evenodd" clip-rule="evenodd" d="M43.7859 14.5316C43.6169 14.6837 43.3725 14.6941 43.1805 14.5914C42.3286 13.8834 42.1758 13.5564 41.7099 12.8816C40.302 14.3161 39.3046 14.7465 37.4804 14.7465C35.3209 14.7465 33.6406 13.4132 33.6406 10.748C33.6406 8.66536 34.7694 7.24936 36.3767 6.55539C37.7683 5.9441 39.7121 5.83336 41.2005 5.66651V5.33355C41.2005 4.72153 41.2485 4.00098 40.8882 3.47312C40.5759 3.00062 39.9764 2.80646 39.4486 2.80646C38.4696 2.80646 37.6007 3.30774 37.3866 4.34649C37.3416 4.57757 37.1732 4.80717 36.9414 4.81898L34.4542 4.54951C34.2445 4.50152 34.0112 4.3332 34.071 4.01279C34.6358 1.0383 37.2921 0.111039 39.7062 0.0859375H39.8967C41.1326 0.101441 42.711 0.440307 43.6722 1.3624C44.9206 2.52887 44.7996 4.08366 44.7996 5.77799V9.77424C44.7996 10.9769 45.2994 11.504 45.7682 12.1515C45.9328 12.3855 45.969 12.6623 45.76 12.8336C45.2359 13.2729 44.3049 14.0813 43.7933 14.5376L43.7859 14.5316ZM41.2005 8.27703C41.2005 9.27665 41.2241 10.1094 40.7206 10.9983C40.3124 11.7196 39.6642 12.164 38.9444 12.164C37.961 12.164 37.3851 11.4147 37.3851 10.3036C37.3851 8.1183 39.3445 7.72111 41.2005 7.72111V8.27703Z" fill="#333E47"/>
<path fill-rule="evenodd" clip-rule="evenodd" d="M10.1573 14.5316C9.98746 14.6837 9.74235 14.6941 9.55114 14.5914C8.69844 13.8834 8.54562 13.5564 8.08051 12.8816C6.67189 14.3161 5.67523 14.7465 3.85097 14.7465C1.69153 14.7465 0.0112305 13.4132 0.0112305 10.748C0.0112305 8.66536 1.13857 7.24936 2.74726 6.55539C4.13889 5.9441 6.08275 5.83336 7.57037 5.66651V5.33355C7.57037 4.72153 7.61909 4.00098 7.25882 3.47312C6.94653 3.00062 6.34632 2.80646 5.81919 2.80646C4.84025 2.80646 3.96983 3.30774 3.75721 4.34649C3.71291 4.57757 3.54385 4.80717 3.31129 4.81898L0.824803 4.54951C0.614396 4.50152 0.381103 4.3332 0.441641 4.01279C1.00494 1.0383 3.66197 0.111039 6.07685 0.0859375H6.26732C7.50318 0.101441 9.0816 0.440307 10.0428 1.3624C11.2905 2.52887 11.1702 4.08366 11.1702 5.77799V9.77424C11.1702 10.9769 11.67 11.504 12.1388 12.1515C12.3019 12.3855 12.3396 12.6623 12.1307 12.8336C11.6065 13.2729 10.6748 14.0813 10.1632 14.5376L10.1573 14.5316ZM7.57037 8.27703C7.57037 9.27665 7.59473 10.1094 7.09049 10.9983C6.68297 11.7196 6.03477 12.164 5.31422 12.164C4.33084 12.164 3.75499 11.4147 3.75499 10.3036C3.75499 8.1183 5.7151 7.72111 7.57037 7.72111V8.27703Z" fill="#333E47"/>
<path fill-rule="evenodd" clip-rule="evenodd" d="M117.966 19.2876C117.966 18.9539 117.966 18.6542 117.966 18.3205C117.966 18.0451 118.102 17.8554 118.389 17.8724C118.925 17.9484 119.683 18.0245 120.221 17.9137C120.924 17.7675 121.428 17.2692 121.726 16.5863C122.147 15.6251 122.425 14.8499 122.601 14.3412L117.264 1.12031C117.174 0.895876 117.147 0.479492 117.595 0.479492H119.461C119.817 0.479492 119.961 0.705402 120.041 0.926883L123.91 11.6657L127.604 0.926883C127.679 0.706879 127.83 0.479492 128.183 0.479492H129.943C130.388 0.479492 130.363 0.895138 130.274 1.12031L124.98 14.7539C124.295 16.5686 123.382 19.4589 121.327 19.9609C120.296 20.2304 118.996 20.1329 118.233 19.8133C118.04 19.7166 117.966 19.4582 117.966 19.2876Z" fill="#333E47"/>
<path fill-rule="evenodd" clip-rule="evenodd" d="M115.478 13.7589C115.478 14.0047 115.277 14.2062 115.029 14.2062H113.714C113.429 14.2062 113.235 14.001 113.199 13.7589L113.067 12.8633C112.462 13.375 111.72 13.8246 110.916 14.1376C109.368 14.7385 107.585 14.8382 106.073 13.9095C104.979 13.2384 104.399 11.9265 104.399 10.5732C104.399 9.52636 104.722 8.48835 105.437 7.73458C106.392 6.70469 107.775 6.19898 109.446 6.19898C110.455 6.19898 111.899 6.31784 112.95 6.66114V4.85902C112.95 3.02664 112.178 2.23374 110.144 2.23374C108.589 2.23374 107.4 2.46851 105.745 2.98308C105.48 2.99194 105.325 2.79039 105.325 2.54455V1.51688C105.325 1.2703 105.535 1.03184 105.763 0.959485C106.945 0.444173 108.62 0.123026 110.4 0.0639648C112.72 0.0639648 115.478 0.587398 115.478 4.15619V13.7589ZM112.95 11.1277V8.40862C112.067 8.1672 110.606 8.0668 110.04 8.0668C109.147 8.0668 108.169 8.27794 107.658 8.82796C107.276 9.23105 107.103 9.80985 107.103 10.3695C107.103 11.093 107.353 11.8187 107.938 12.1775C108.617 12.6389 109.671 12.5828 110.661 12.3015C111.613 12.0313 112.506 11.5536 112.95 11.1277Z" fill="#333E47"/>
<path fill-rule="evenodd" clip-rule="evenodd" d="M96.0799 2.27452C98.999 2.27452 99.7941 4.5698 99.7941 7.19804C99.8103 8.96988 99.4848 10.5498 98.5671 11.4542C97.8805 12.1312 97.1134 12.3157 95.9588 12.3157C94.9311 12.3157 93.5793 11.7797 92.5694 11.0333V3.51851C93.6207 2.71084 94.9621 2.27452 96.0799 2.27452ZM92.122 19.7597H90.3597C90.1132 19.7597 89.9116 19.5581 89.9116 19.3123C89.9116 13.192 89.9116 7.07106 89.9116 0.950806C89.9116 0.704962 90.1132 0.503415 90.3597 0.503415H91.7086C91.9921 0.503415 92.1862 0.708653 92.2224 0.950806L92.3641 1.91277C93.6273 0.79134 95.2537 0.0722656 96.8034 0.0722656C101.144 0.0722656 102.571 3.64844 102.571 7.3671C102.571 11.3456 100.388 14.5423 96.6956 14.5423C95.1408 14.5423 93.6871 13.9687 92.5694 12.972V19.3123C92.5694 19.5581 92.3678 19.7597 92.122 19.7597Z" fill="#333E47"/>
</g>
<defs>
<clipPath id="clip0_703_827">
<rect width="130.316" height="25" fill="white" transform="translate(0.0112305 0.0639648)"/>
</clipPath>
</defs>
</svg>
