<svg width="50" height="51" viewBox="0 0 50 51" fill="none" xmlns="http://www.w3.org/2000/svg">
<rect y="0.5" width="50" height="50" rx="8" fill="#5BB5A2"/>
<path d="M24.5612 19.9257C23.5392 19.9257 21.9572 18.7637 20.2912 18.8057C18.0932 18.8337 16.0772 20.0797 14.9432 22.0537C12.6612 26.0157 14.3552 31.8677 16.5812 35.0877C17.6732 36.6557 18.9612 38.4197 20.6692 38.3637C22.3072 38.2937 22.9232 37.2997 24.9112 37.2997C26.8852 37.2997 27.4452 38.3637 29.1812 38.3217C30.9452 38.2937 32.0652 36.7257 33.1432 35.1437C34.3892 33.3237 34.9072 31.5597 34.9352 31.4617C34.8932 31.4477 31.5052 30.1457 31.4632 26.2257C31.4352 22.9497 34.1372 21.3817 34.2632 21.3117C32.7232 19.0577 30.3572 18.8057 29.5312 18.7497C27.3752 18.5817 25.5692 19.9257 24.5612 19.9257ZM28.2012 16.6217C29.1112 15.5297 29.7132 14.0037 29.5452 12.4917C28.2432 12.5477 26.6752 13.3597 25.7372 14.4517C24.8972 15.4177 24.1692 16.9717 24.3652 18.4557C25.8072 18.5677 27.2912 17.7137 28.2012 16.6217Z" fill="white"/>
</svg>
