<svg width="62" height="26" viewBox="0 0 62 26" fill="none" xmlns="http://www.w3.org/2000/svg">
<g clip-path="url(#clip0_703_824)">
<path d="M11.2493 3.28709C10.5357 4.13152 9.39393 4.79755 8.25216 4.7024C8.10944 3.56063 8.66843 2.3475 9.32257 1.59822C10.0362 0.729997 11.285 0.111539 12.2959 0.0639648C12.4149 1.25331 11.951 2.41886 11.2493 3.28709ZM12.284 4.92838C10.6308 4.83323 9.21553 5.86796 8.43056 5.86796C7.6337 5.86796 6.43246 4.97595 5.12418 4.99974C3.42342 5.02353 1.8416 5.9869 0.973375 7.52115C-0.81064 10.5897 0.509531 15.1329 2.23408 17.6306C3.07851 18.8675 4.08945 20.2233 5.42152 20.1758C6.68222 20.1282 7.18175 19.3551 8.70411 19.3551C10.2384 19.3551 10.6784 20.1758 12.0105 20.152C13.3901 20.1282 14.2583 18.9151 15.1028 17.6781C16.0661 16.2747 16.4586 14.907 16.4824 14.8356C16.4586 14.8118 13.8183 13.8009 13.7945 10.7562C13.7707 8.21097 15.8758 6.99784 15.971 6.92648C14.7817 5.16625 12.9263 4.97595 12.284 4.92838ZM21.8345 1.47928V20.0211H24.7127V13.6819H28.697C32.3364 13.6819 34.8935 11.1843 34.8935 7.56872C34.8935 3.95312 32.3839 1.47928 28.7921 1.47928H21.8345ZM24.7127 3.90554H28.0309C30.5286 3.90554 31.9558 5.23761 31.9558 7.58062C31.9558 9.92362 30.5286 11.2676 28.019 11.2676H24.7127V3.90554ZM40.1504 20.1639C41.9582 20.1639 43.6351 19.2481 44.3963 17.7971H44.4558V20.0211H47.1199V10.7918C47.1199 8.11582 44.9791 6.39127 41.6846 6.39127C38.628 6.39127 36.3682 8.13961 36.285 10.5421H38.8778C39.0918 9.40031 40.1503 8.65102 41.6013 8.65102C43.3616 8.65102 44.3487 9.47167 44.3487 10.9821V12.005L40.7569 12.2191C37.4149 12.4212 35.6071 13.789 35.6071 16.1677C35.6071 18.5701 37.4743 20.1639 40.1504 20.1639ZM40.9234 17.9636C39.3892 17.9636 38.4139 17.2262 38.4139 16.0963C38.4139 14.9308 39.3535 14.2528 41.1494 14.1458L44.3487 13.9436V14.9902C44.3487 16.7267 42.8739 17.9636 40.9234 17.9636ZM50.676 25.064C53.4829 25.064 54.8031 23.9936 55.9567 20.7466L61.0114 6.56967H58.0857L54.696 17.5235H54.6366L51.2469 6.56967H48.2379L53.1142 20.0687L52.8525 20.8894C52.4125 22.2809 51.6989 22.8161 50.4263 22.8161C50.2003 22.8161 49.7602 22.7923 49.5818 22.7685V24.9926C49.7484 25.0402 50.462 25.064 50.676 25.064Z" fill="black"/>
</g>
<defs>
<clipPath id="clip0_703_824">
<rect width="60.8944" height="25" fill="white" transform="translate(0.117188 0.0639648)"/>
</clipPath>
</defs>
</svg>
