<svg width="51" height="51" viewBox="0 0 51 51" fill="none" xmlns="http://www.w3.org/2000/svg">
<rect x="0.24707" y="0.723633" width="50" height="50" rx="10" fill="#5BB5A2"/>
<path d="M22.3626 38.1925C21.0908 38.1925 19.9779 37.9541 19.024 37.4771C18.0701 37.0002 17.2979 36.3302 16.7074 35.4671L16.2304 37.7837H12.3467V13.2549H16.7074V23.3049C17.2524 22.5554 17.9679 21.8968 18.8536 21.329C19.7621 20.7612 20.9318 20.4773 22.3626 20.4773C23.9525 20.4773 25.3719 20.8634 26.6211 21.6356C27.8703 22.4078 28.8582 23.4639 29.585 24.8039C30.3118 26.1439 30.6752 27.6656 30.6752 29.369C30.6752 31.0724 30.3118 32.5941 29.585 33.9341C28.8582 35.2513 27.8703 36.2961 26.6211 37.0683C25.3719 37.8178 23.9525 38.1925 22.3626 38.1925ZM21.4428 34.3769C22.8282 34.3769 23.9752 33.9113 24.8836 32.9802C25.7921 32.049 26.2464 30.8452 26.2464 29.369C26.2464 27.8927 25.7921 26.6776 24.8836 25.7237C23.9752 24.7698 22.8282 24.2929 21.4428 24.2929C20.0347 24.2929 18.8763 24.7698 17.9679 25.7237C17.0821 26.6549 16.6392 27.8586 16.6392 29.3349C16.6392 30.8112 17.0821 32.0263 17.9679 32.9802C18.8763 33.9113 20.0347 34.3769 21.4428 34.3769Z" fill="white"/>
<path d="M35.4223 38.0222C34.6274 38.0222 33.9688 37.7724 33.4464 37.2727C32.9467 36.773 32.6969 36.1712 32.6969 35.4671C32.6969 34.7403 32.9467 34.1271 33.4464 33.6274C33.9688 33.1278 34.6274 32.878 35.4223 32.878C36.2172 32.878 36.8645 33.1278 37.3642 33.6274C37.8866 34.1271 38.1477 34.7403 38.1477 35.4671C38.1477 36.1712 37.8866 36.773 37.3642 37.2727C36.8645 37.7724 36.2172 38.0222 35.4223 38.0222Z" fill="white"/>
</svg>
