<svg width="72" height="73" viewBox="0 0 72 73" fill="none" xmlns="http://www.w3.org/2000/svg">
<g clip-path="url(#clip0_618_258)">
<path d="M14.0002 48.7236C17.9142 48.7236 21.2662 50.9936 22.9102 54.2676L29.8642 50.7896C26.9762 44.8396 20.8922 40.7236 13.8322 40.7236C11.3154 40.7242 8.8275 41.2608 6.53418 42.2976L9.87018 49.6376C11.1653 49.0402 12.5739 48.7285 14.0002 48.7236ZM58.0002 48.7236C60.9342 48.7236 63.5442 50.0096 65.3762 52.0196L71.1702 46.7496C69.5024 44.8556 67.4503 43.3385 65.1505 42.2995C62.8506 41.2604 60.3558 40.7232 57.8322 40.7236C50.6802 40.7236 44.5282 44.9456 41.6862 51.0236L48.9822 54.4676C50.5862 51.0836 54.0062 48.7236 58.0002 48.7236Z" fill="#EA596E"/>
<path d="M14 44.7236C12.1615 44.7236 10.341 45.0858 8.64243 45.7893C6.94387 46.4929 5.40053 47.5241 4.10051 48.8241C2.80049 50.1242 1.76925 51.6675 1.06569 53.3661C0.362121 55.0646 0 56.8851 0 58.7236C0 60.5621 0.362121 62.3826 1.06569 64.0812C1.76925 65.7798 2.80049 67.3231 4.10051 68.6231C5.40053 69.9232 6.94387 70.9544 8.64243 71.6579C10.341 72.3615 12.1615 72.7236 14 72.7236C17.713 72.7236 21.274 71.2486 23.8995 68.6231C26.525 65.9976 28 62.4367 28 58.7236C28 55.0106 26.525 51.4496 23.8995 48.8241C21.274 46.1986 17.713 44.7236 14 44.7236ZM14 68.7236C11.3478 68.7236 8.8043 67.6701 6.92893 65.7947C5.05357 63.9193 4 61.3758 4 58.7236C4 56.0715 5.05357 53.5279 6.92893 51.6526C8.8043 49.7772 11.3478 48.7236 14 48.7236C16.6522 48.7236 19.1957 49.7772 21.0711 51.6526C22.9464 53.5279 24 56.0715 24 58.7236C24 61.3758 22.9464 63.9193 21.0711 65.7947C19.1957 67.6701 16.6522 68.7236 14 68.7236ZM58 44.7236C54.2867 44.7239 50.7256 46.1993 48.1001 48.8251C45.4746 51.451 43.9997 55.0123 44 58.7256C44.0003 62.4389 45.4756 66 48.1015 68.6255C50.7274 71.2511 54.2887 72.7259 58.002 72.7256C59.8406 72.7255 61.6612 72.3632 63.3599 71.6595C65.0585 70.9557 66.6019 69.9243 67.9019 68.6241C69.2019 67.3239 70.2331 65.7804 70.9366 64.0817C71.6401 62.3829 72.0021 60.5623 72.002 58.7236C72.0019 56.885 71.6396 55.0644 70.9359 53.3658C70.2321 51.6671 69.2007 50.1237 67.9005 48.8237C66.6003 47.5237 65.0568 46.4925 63.358 45.789C61.6593 45.0855 59.8386 44.7235 58 44.7236ZM58 68.7236C55.3478 68.7236 52.8043 67.6701 50.9289 65.7947C49.0536 63.9193 48 61.3758 48 58.7236C48 56.0715 49.0536 53.5279 50.9289 51.6526C52.8043 49.7772 55.3478 48.7236 58 48.7236C60.6522 48.7236 63.1957 49.7772 65.0711 51.6526C66.9464 53.5279 68 56.0715 68 58.7236C68 61.3758 66.9464 63.9193 65.0711 65.7947C63.1957 67.6701 60.6522 68.7236 58 68.7236Z" fill="#292F33"/>
<path d="M59.968 58.5676C59.955 58.4332 59.9282 58.3005 59.888 58.1716C59.8529 58.0433 59.8053 57.9187 59.746 57.7996C59.72 57.7516 59.716 57.6956 59.688 57.6496L45.688 35.6496C45.547 35.4279 45.3637 35.2361 45.1486 35.0852C44.9335 34.9343 44.6907 34.8273 44.4342 34.7703C44.1777 34.7133 43.9125 34.7074 43.6537 34.7529C43.3949 34.7984 43.1476 34.8945 42.926 35.0356C42.6467 35.218 42.4184 35.4684 42.2627 35.7634C42.107 36.0584 42.029 36.3882 42.036 36.7216H24C23.4696 36.7216 22.9609 36.9323 22.5858 37.3074C22.2107 37.6825 22 38.1912 22 38.7216C22 39.2521 22.2107 39.7608 22.5858 40.1358C22.9609 40.5109 23.4696 40.7216 24 40.7216H44C44.054 40.7216 44.1 40.6936 44.154 40.6896L54.356 56.7236H36C35.4696 56.7236 34.9609 56.9343 34.5858 57.3094C34.2107 57.6845 34 58.1932 34 58.7236C34 59.2541 34.2107 59.7628 34.5858 60.1378C34.9609 60.5129 35.4696 60.7236 36 60.7236H58.002C58.3086 60.7169 58.6095 60.6402 58.882 60.4996C58.944 60.4656 59.014 60.4516 59.076 60.4116C59.136 60.3716 59.172 60.3096 59.226 60.2676C59.4326 60.1064 59.6035 59.9042 59.728 59.6736C59.788 59.5616 59.838 59.4536 59.878 59.3296C59.9186 59.1988 59.9455 59.0641 59.958 58.9276C59.966 58.8556 60 58.7956 60 58.7236C60 58.6696 59.972 58.6216 59.968 58.5676Z" fill="#DD2E44"/>
<path d="M43.1618 32.7236L37.3638 48.9576L25.5058 35.4076C25.3339 35.2067 25.1237 35.0418 24.8876 34.9226C24.6515 34.8034 24.3941 34.7323 24.1303 34.7132C23.8665 34.6942 23.6015 34.7277 23.3507 34.8117C23.0999 34.8958 22.8683 35.0288 22.6692 35.2029C22.4702 35.3771 22.3077 35.5891 22.1911 35.8265C22.0745 36.0639 22.0062 36.3221 21.99 36.5861C21.9739 36.8501 22.0103 37.1147 22.0971 37.3645C22.184 37.6144 22.3195 37.8445 22.4958 38.0416L35.8238 53.2716L34.1158 58.0516C33.9376 58.5513 33.9652 59.1013 34.1925 59.5806C34.4198 60.06 34.8282 60.4294 35.3278 60.6076C35.8275 60.7859 36.3775 60.7583 36.8569 60.531C37.3362 60.3037 37.7056 59.8953 37.8838 59.3956L47.4098 32.7236H43.1618Z" fill="#DD2E44"/>
<path d="M13.9999 60.7237C13.6593 60.7232 13.3244 60.6357 13.0271 60.4695C12.7298 60.3033 12.4798 60.0639 12.3009 59.7741C12.1221 59.4842 12.0202 59.1535 12.0049 58.8132C11.9897 58.4729 12.0616 58.1344 12.2139 57.8297L18.3379 45.6177C18.3719 45.5617 21.9999 40.0257 21.9999 34.7237C21.9999 28.2397 17.4139 26.6377 17.3679 26.6217C17.1155 26.5412 16.8817 26.4114 16.6799 26.2398C16.4782 26.0681 16.3125 25.8582 16.1926 25.622C16.0726 25.3858 16.0008 25.1282 15.9812 24.8641C15.9616 24.5999 15.9947 24.3345 16.0786 24.0833C16.1624 23.832 16.2953 23.5999 16.4696 23.4004C16.6439 23.201 16.856 23.0381 17.0937 22.9213C17.3315 22.8045 17.59 22.7361 17.8544 22.72C18.1188 22.7039 18.3837 22.7405 18.6339 22.8277C18.9339 22.9277 25.9999 25.3897 25.9999 34.7237C25.9999 40.8597 22.3279 46.8077 21.7379 47.7177L15.7899 59.6157C15.6246 59.949 15.3693 60.2294 15.053 60.4252C14.7367 60.621 14.3719 60.7244 13.9999 60.7237Z" fill="#DD2E44"/>
<path d="M29.2239 28.0496C29.1133 28.0501 29.0029 28.0408 28.8939 28.0216L16.8939 26.0216C16.3706 25.9343 15.9035 25.6428 15.5951 25.2111C15.2868 24.7794 15.1627 24.2429 15.2499 23.7196C15.3372 23.1963 15.6287 22.7291 16.0604 22.4208C16.4921 22.1125 17.0286 21.9883 17.5519 22.0756L29.5519 24.0756C30.0485 24.1564 30.4963 24.4214 30.8062 24.8178C31.116 25.2142 31.2651 25.7127 31.2238 26.2141C31.1824 26.7155 30.9535 27.1829 30.5829 27.5231C30.2122 27.8633 29.727 28.0513 29.2239 28.0496ZM52.7659 34.7236C52.7064 34.7236 52.6469 34.7196 52.5879 34.7116L41.2439 33.2956C40.8749 33.2649 40.5325 33.0909 40.2903 32.8109C40.048 32.5308 39.9251 32.167 39.9478 31.7974C39.9706 31.4278 40.1372 31.0819 40.412 30.8336C40.6868 30.5854 41.0479 30.4547 41.4179 30.4696C41.4999 30.4696 49.5519 30.4336 53.3959 27.8716C53.6422 27.7085 53.933 27.6259 54.2282 27.6353C54.5234 27.6446 54.8084 27.7453 55.0439 27.9236C55.2777 28.1039 55.4497 28.3524 55.5361 28.6348C55.6224 28.9171 55.6189 29.2193 55.5259 29.4996L54.1079 33.7536C54.0151 34.0361 53.8353 34.2821 53.5943 34.4563C53.3533 34.6306 53.0633 34.7241 52.7659 34.7236Z" fill="#292F33"/>
<path d="M40 58.7236C40 59.7845 39.5786 60.8019 38.8284 61.5521C38.0783 62.3022 37.0609 62.7236 36 62.7236C34.9391 62.7236 33.9217 62.3022 33.1716 61.5521C32.4214 60.8019 32 59.7845 32 58.7236C32 57.6628 32.4214 56.6454 33.1716 55.8952C33.9217 55.1451 34.9391 54.7236 36 54.7236C37.0609 54.7236 38.0783 55.1451 38.8284 55.8952C39.5786 56.6454 40 57.6628 40 58.7236Z" fill="#66757F"/>
</g>
<defs>
<clipPath id="clip0_618_258">
<rect width="72" height="72" fill="white" transform="translate(0 0.723633)"/>
</clipPath>
</defs>
</svg>
