<svg width="121" height="26" viewBox="0 0 121 26" fill="none" xmlns="http://www.w3.org/2000/svg">
<g clip-path="url(#clip0_703_781)">
<path d="M25.2591 15.5892C23.5896 22.2856 16.8073 26.361 10.1101 24.6911C3.41567 23.0216 -0.659664 16.2388 1.01062 9.54286C2.67935 2.84569 9.46167 -1.23002 16.1569 0.439485C22.8537 2.10899 26.9286 8.89248 25.2591 15.5892Z" fill="#F7931A"/>
<path d="M18.6459 10.7845C18.8947 9.12122 17.6283 8.22709 15.8967 7.63062L16.4584 5.37753L15.087 5.03573L14.5401 7.22945C14.1796 7.13961 13.8093 7.05485 13.4413 6.97086L13.9921 4.76269L12.6214 4.4209L12.0593 6.6732C11.7609 6.60524 11.4679 6.53806 11.1835 6.46736L11.1851 6.46032L9.29371 5.98806L8.92888 7.45288C8.92888 7.45288 9.94644 7.68608 9.92495 7.70053C10.4804 7.8392 10.5808 8.20677 10.564 8.49817L9.92417 11.0649C9.96245 11.0747 10.0121 11.0888 10.0668 11.1106C10.021 11.0993 9.97222 11.0868 9.92183 11.0747L9.02496 14.6704C8.95699 14.8391 8.78474 15.0922 8.39646 14.9961C8.41014 15.016 7.3996 14.7473 7.3996 14.7473L6.71875 16.3172L8.50349 16.7621C8.83551 16.8453 9.1609 16.9324 9.4812 17.0144L8.91364 19.2933L10.2835 19.6351L10.8456 17.3805C11.2199 17.482 11.5831 17.5758 11.9386 17.6641L11.3784 19.9082L12.7499 20.25L13.3175 17.9754C15.6561 18.4179 17.4147 18.2394 18.1549 16.1242C18.7514 14.4211 18.1252 13.4387 16.8948 12.7981C17.7908 12.5915 18.4658 12.002 18.6459 10.7845ZM15.5124 15.1785C15.0885 16.8816 12.221 15.961 11.2913 15.7301L12.0444 12.711C12.9741 12.943 15.9553 13.4024 15.5124 15.1785ZM15.9366 10.7599C15.5499 12.3091 13.1632 11.522 12.389 11.329L13.0718 8.59076C13.846 8.78373 16.3393 9.14387 15.9366 10.7599Z" fill="white"/>
<path d="M37.2667 7.62859C38.2804 7.62859 39.1561 7.81022 39.8921 8.16686C40.6315 8.52701 41.2417 9.01216 41.7311 9.62231C42.2139 10.2356 42.5733 10.9524 42.8053 11.7738C43.0358 12.5977 43.1514 13.4832 43.1514 14.4312C43.1514 15.8874 42.8846 17.2632 42.3459 18.5601C41.8073 19.8589 41.0764 20.9854 40.1467 21.9463C39.2179 22.9061 38.121 23.6627 36.8562 24.2217C35.5933 24.7811 34.2203 25.0607 32.7461 25.0607C32.5555 25.0607 32.2203 25.0553 31.7469 25.0455C31.2734 25.0357 30.7293 24.9869 30.12 24.9045C29.5067 24.8189 28.8583 24.6924 28.1735 24.5229C27.4891 24.3565 26.8392 24.1233 26.2271 23.8272L31.7004 0.829093L36.6027 0.0693359L34.6429 8.23054C35.0625 8.04148 35.4851 7.89499 35.907 7.78835C36.3292 7.68327 36.7824 7.62859 37.2667 7.62859ZM33.1547 21.1717C33.8929 21.1717 34.5886 20.9901 35.2421 20.6335C35.8976 20.2764 36.4632 19.7944 36.937 19.194C37.4109 18.5909 37.7858 17.9116 38.0593 17.1527C38.3327 16.3937 38.471 15.6019 38.471 14.7781C38.471 13.766 38.3019 12.9766 37.9648 12.4059C37.6276 11.8375 37.0038 11.5516 36.098 11.5516C35.8011 11.5516 35.4187 11.6082 34.9445 11.7094C34.4687 11.8168 34.0429 12.0399 33.6613 12.3754L31.5746 21.0424C31.7004 21.0647 31.8117 21.0858 31.9066 21.1057C31.9996 21.1272 32.1023 21.1424 32.2047 21.153C32.3129 21.1651 32.4367 21.1714 32.5863 21.1714C32.7359 21.1714 32.923 21.1717 33.1547 21.1717Z" fill="#4D4D4D"/>
<path d="M48.2351 24.6205H43.5527L47.507 7.98133H52.2214L48.2351 24.6205ZM50.5136 5.95401C49.8601 5.95401 49.2675 5.75949 48.7417 5.36965C48.2116 4.98215 47.9492 4.38568 47.9492 3.58179C47.9492 3.13961 48.039 2.72476 48.2171 2.33336C48.398 1.94274 48.6343 1.60643 48.9304 1.32049C49.2261 1.0369 49.5687 0.810341 49.9577 0.63964C50.3491 0.471674 50.7655 0.387695 51.2093 0.387695C51.8624 0.387695 52.4518 0.582224 52.9795 0.972062C53.5053 1.36385 53.7698 1.96033 53.7698 2.75992C53.7698 3.20367 53.6803 3.62006 53.5006 4.01068C53.3221 4.4013 53.0858 4.73762 52.7897 5.02355C52.4963 5.30753 52.1506 5.53331 51.7624 5.70245C51.3706 5.87315 50.9557 5.95401 50.5136 5.95401Z" fill="#4D4D4D"/>
<path d="M56.3248 3.83544L61.229 3.07568L60.0247 7.98029H65.277L64.3285 11.8388H59.1079L57.7173 17.6591C57.5892 18.1442 57.5165 18.5973 57.4962 19.0184C57.4732 19.4414 57.5267 19.8047 57.6533 20.1106C57.779 20.4172 58.0052 20.6535 58.3333 20.8207C58.6599 20.9906 59.1275 21.0762 59.7407 21.0762C60.2458 21.0762 60.738 21.0281 61.2138 20.9328C61.6868 20.8391 62.1661 20.7086 62.6512 20.5379L63.0004 24.1457C62.3676 24.3777 61.6825 24.5773 60.9442 24.7453C60.2048 24.9156 59.3294 24.9976 58.3177 24.9976C56.863 24.9976 55.7353 24.7816 54.9318 24.3515C54.1295 23.9183 53.5623 23.3265 53.2229 22.5773C52.8881 21.8309 52.7385 20.9703 52.7803 20.0008C52.8236 19.029 52.9701 18.0075 53.2229 16.9317L56.3248 3.83544Z" fill="#4D4D4D"/>
<path d="M65.0708 17.9758C65.0708 16.5426 65.3028 15.1911 65.7665 13.9259C66.2294 12.6595 66.8962 11.5521 67.7614 10.6017C68.6235 9.65602 69.6739 8.90681 70.9102 8.35682C72.1406 7.80995 73.5183 7.53418 75.0367 7.53418C75.987 7.53418 76.8359 7.62403 77.5827 7.8041C78.3327 7.98574 79.0112 8.2205 79.6249 8.51503L78.0101 12.1868C77.5882 12.0158 77.1503 11.865 76.6976 11.7283C76.2445 11.5888 75.6913 11.5216 75.0371 11.5216C73.4742 11.5216 72.2387 12.0603 71.3191 13.1341C70.4031 14.2087 69.9418 15.6551 69.9418 17.4696C69.9418 18.5449 70.1739 19.4145 70.6395 20.0797C71.1027 20.7449 71.9586 21.0758 73.2011 21.0758C73.8144 21.0758 74.4062 21.0117 74.973 20.8867C75.5441 20.7602 76.0484 20.6008 76.4925 20.4125L76.8421 24.1765C76.2499 24.4062 75.5968 24.6136 74.8804 24.7952C74.1625 24.9706 73.3078 25.0616 72.3168 25.0616C71.0086 25.0616 69.9012 24.8702 68.9953 24.4933C68.0891 24.1105 67.3403 23.6023 66.7505 22.9585C66.1575 22.3132 65.7317 21.5597 65.4685 20.6949C65.2052 19.8309 65.0708 18.9231 65.0708 17.9758Z" fill="#4D4D4D"/>
<path d="M85.8716 25.0616C84.754 25.0616 83.7833 24.8913 82.9599 24.5542C82.1388 24.2171 81.4587 23.7441 80.9209 23.1308C80.3822 22.5207 79.9791 21.7976 79.7029 20.9644C79.4268 20.1316 79.2939 19.2094 79.2939 18.1989C79.2939 16.9313 79.4975 15.6641 79.9088 14.4005C80.3182 13.1341 80.9256 11.9962 81.7294 10.9849C82.5271 9.97204 83.5111 9.14392 84.6696 8.49822C85.827 7.85683 87.1583 7.53418 88.6536 7.53418C89.7508 7.53418 90.7164 7.70488 91.5512 8.04198C92.382 8.3783 93.0664 8.85525 93.6074 9.4654C94.1425 10.0787 94.5492 10.7986 94.8226 11.6329C95.098 12.4642 95.2339 13.3888 95.2339 14.4001C95.2339 15.6637 95.0332 16.9309 94.6347 18.1985C94.2359 19.4598 93.6441 20.6004 92.8629 21.614C92.0832 22.6254 91.1082 23.4531 89.9371 24.096C88.7676 24.739 87.4114 25.0616 85.8716 25.0616ZM88.2118 11.522C87.5177 11.522 86.904 11.7236 86.3786 12.1216C85.8513 12.5243 85.4083 13.0306 85.0513 13.6411C84.6903 14.2544 84.4228 14.9231 84.2419 15.6501C84.0626 16.3786 83.9747 17.0672 83.9747 17.7215C83.9747 18.7774 84.145 19.5996 84.4798 20.1914C84.8193 20.7801 85.429 21.0762 86.3153 21.0762C87.0118 21.0762 87.6223 20.8762 88.1508 20.4738C88.6751 20.0742 89.1184 19.5676 89.4782 18.9559C89.8368 18.3457 90.1067 17.675 90.2875 16.9469C90.4645 16.2208 90.5547 15.5282 90.5547 14.8751C90.5547 13.822 90.3852 12.9978 90.0473 12.4068C89.7098 11.8181 89.0973 11.522 88.2118 11.522Z" fill="#4D4D4D"/>
<path d="M100.336 24.6205H95.6499L99.6041 7.98133H104.321L100.336 24.6205ZM102.611 5.95401C101.958 5.95401 101.366 5.75949 100.841 5.36965C100.314 4.98215 100.049 4.38568 100.049 3.58179C100.049 3.13961 100.14 2.72476 100.318 2.33336C100.497 1.94274 100.735 1.60643 101.031 1.32049C101.325 1.0369 101.671 0.810341 102.059 0.63964C102.448 0.471674 102.864 0.387695 103.306 0.387695C103.961 0.387695 104.552 0.582224 105.079 0.972062C105.606 1.36385 105.872 1.96033 105.872 2.75992C105.872 3.20367 105.777 3.62006 105.601 4.01068C105.424 4.4013 105.186 4.73762 104.891 5.02355C104.594 5.30753 104.252 5.53331 103.863 5.70245C103.471 5.87315 103.056 5.95401 102.611 5.95401Z" fill="#4D4D4D"/>
<path d="M107.695 8.73788C108.051 8.63397 108.448 8.50898 108.879 8.37304C109.312 8.23711 109.796 8.11055 110.337 7.99649C110.872 7.87891 111.475 7.7836 112.139 7.70977C112.803 7.63438 113.559 7.59766 114.399 7.59766C116.869 7.59766 118.571 8.31679 119.511 9.75076C120.45 11.1847 120.612 13.1472 120.003 15.6346L117.849 24.6189H113.136L115.223 15.8237C115.351 15.2745 115.451 14.7436 115.524 14.2249C115.599 13.7108 115.595 13.2577 115.508 12.8656C115.424 12.4781 115.228 12.1609 114.924 11.9152C114.615 11.6734 114.148 11.5519 113.515 11.5519C112.905 11.5519 112.283 11.6175 111.649 11.7441L108.58 24.6185H103.865L107.695 8.73788Z" fill="#4D4D4D"/>
</g>
<defs>
<clipPath id="clip0_703_781">
<rect width="119.725" height="25" fill="white" transform="translate(0.637207 0.0639648)"/>
</clipPath>
</defs>
</svg>
