<svg width="64" height="26" viewBox="0 0 64 26" fill="none" xmlns="http://www.w3.org/2000/svg">
<g clip-path="url(#clip0_703_815)">
<path d="M29.9386 12.2774V19.6057H27.6138V1.50805H33.7797C34.5156 1.49268 35.2474 1.62321 35.9327 1.89212C36.618 2.16103 37.2432 2.56298 37.7723 3.07479C38.3068 3.55553 38.7321 4.1451 39.0198 4.80389C39.3075 5.46267 39.4508 6.1754 39.4401 6.89418C39.4554 7.6168 39.3143 8.33418 39.0264 8.99716C38.7386 9.66015 38.3108 10.253 37.7723 10.7352C36.6941 11.7634 35.3632 12.2769 33.7797 12.276H29.9386V12.2774ZM29.9386 3.73615V10.0537H33.8374C34.2648 10.0663 34.6902 9.98964 35.0863 9.82852C35.4824 9.6674 35.8405 9.42538 36.1377 9.11794C36.4334 8.83049 36.6684 8.48668 36.8289 8.10683C36.9893 7.72698 37.072 7.31881 37.072 6.90645C37.072 6.49409 36.9893 6.08592 36.8289 5.70607C36.6684 5.32622 36.4334 4.98241 36.1377 4.69496C35.8442 4.38105 35.4874 4.1331 35.0908 3.96755C34.6942 3.802 34.267 3.72263 33.8374 3.7347H29.9386V3.73615Z" fill="#5F6368"/>
<path d="M44.7971 6.81885C46.5155 6.81885 47.8719 7.27804 48.8663 8.19643C49.8607 9.11481 50.3575 10.374 50.3565 11.9739V19.6055H48.1327V17.8871H48.0317C47.069 19.3022 45.7886 20.0098 44.1906 20.0098C42.8265 20.0098 41.6853 19.6055 40.7669 18.7968C40.3261 18.4257 39.9738 17.9609 39.7355 17.4363C39.4971 16.9117 39.3789 16.3405 39.3893 15.7644C39.3893 14.4831 39.8735 13.4641 40.842 12.7075C41.8104 11.9508 43.1033 11.5715 44.7206 11.5696C46.101 11.5696 47.2379 11.8223 48.1313 12.3277V11.7963C48.1339 11.4036 48.0491 11.0152 47.883 10.6593C47.7169 10.3034 47.4737 9.98887 47.171 9.73862C46.5562 9.18395 45.755 8.8813 44.9271 8.89099C43.6284 8.89099 42.6008 9.43875 41.8441 10.5343L39.7965 9.24477C40.9228 7.62749 42.5897 6.81885 44.7971 6.81885ZM41.7892 15.815C41.7877 16.1109 41.8568 16.4028 41.991 16.6666C42.1251 16.9303 42.3203 17.1582 42.5603 17.3312C43.0745 17.7356 43.7127 17.9499 44.3668 17.9377C45.3478 17.936 46.2882 17.5455 46.9819 16.8518C47.752 16.1269 48.1371 15.2764 48.1371 14.3002C47.4122 13.7226 46.4014 13.4338 45.1047 13.4338C44.1603 13.4338 43.3728 13.6615 42.7423 14.1168C42.1055 14.5789 41.7892 15.1406 41.7892 15.815Z" fill="#5F6368"/>
<path d="M63.1215 7.22314L55.3586 25.0638H52.9586L55.8394 18.8214L50.7349 7.22314H53.2619L56.9513 16.1182H57.0018L60.5902 7.22314H63.1215Z" fill="#5F6368"/>
<path d="M20.5439 10.6975C20.5448 9.98902 20.4849 9.28175 20.3648 8.5835H10.5601V12.5877H16.1758C16.0609 13.2272 15.8176 13.8369 15.4608 14.3799C15.1039 14.9229 14.6408 15.388 14.0993 15.7472V18.3464H17.4508C19.4132 16.5371 20.5439 13.8613 20.5439 10.6975Z" fill="#4285F4"/>
<path d="M10.5598 20.8577C13.3655 20.8577 15.7279 19.9364 17.4505 18.348L14.099 15.7488C13.1662 16.3813 11.9648 16.7423 10.5598 16.7423C7.84794 16.7423 5.5462 14.9142 4.72312 12.4507H1.27051V15.1293C2.13585 16.8512 3.46276 18.2988 5.10309 19.3103C6.74343 20.3219 8.63262 20.8576 10.5598 20.8577Z" fill="#34A853"/>
<path d="M4.72326 12.4508C4.28812 11.1599 4.28812 9.76198 4.72326 8.4711V5.79248H1.27065C0.542694 7.24104 0.163574 8.83976 0.163574 10.4609C0.163574 12.0821 0.542694 13.6808 1.27065 15.1294L4.72326 12.4508Z" fill="#FBBC04"/>
<path d="M10.5598 4.17956C12.0425 4.15534 13.4751 4.71554 14.5481 5.73908L17.5155 2.77166C15.6339 1.00431 13.1411 0.0340093 10.5598 0.0641587C8.63262 0.0642465 6.74343 0.599962 5.10309 1.6115C3.46276 2.62303 2.13585 4.07057 1.27051 5.79251L4.72312 8.47114C5.5462 6.00767 7.84794 4.17956 10.5598 4.17956Z" fill="#EA4335"/>
</g>
<defs>
<clipPath id="clip0_703_815">
<rect width="62.9541" height="25" fill="white" transform="translate(0.163086 0.0639648)"/>
</clipPath>
</defs>
</svg>
