<svg width="64" height="65" viewBox="0 0 64 65" fill="none" xmlns="http://www.w3.org/2000/svg">
<g clip-path="url(#clip0_618_247)">
<path d="M60.4444 52.4499C59.7031 50.7379 58.8516 48.8802 56.8889 48.8802H55.1111C57.0738 48.8802 58.6667 47.2819 58.6667 45.3104V14.9602C58.6676 14.4923 58.5764 14.0288 58.3982 13.5962C58.22 13.1636 57.9584 12.7704 57.6282 12.4389C57.298 12.1074 56.9058 11.8442 56.4739 11.6643C56.0421 11.4844 55.579 11.3913 55.1111 11.3904H8.88889C6.92622 11.3904 5.33333 12.9886 5.33333 14.9602V45.3104C5.33333 47.2819 6.92622 48.8802 8.88889 48.8802H7.11111C5.14844 48.8802 4.14756 50.6651 3.55556 52.4499L0 61.1522C0 63.1255 1.59289 64.7237 3.55556 64.7237H60.4444C62.4071 64.7237 64 63.1255 64 61.1539L60.4444 52.4499Z" fill="#CCD6DD"/>
<path d="M0.0141602 61.3015L0.0248268 61.4028L0.327049 62.6331C0.607653 63.2547 1.06131 63.7825 1.63381 64.1532C2.20631 64.5239 2.87344 64.722 3.55549 64.7237H60.4444C61.3623 64.7207 62.2434 64.3628 62.9035 63.725C63.5635 63.0871 63.9513 62.2188 63.9857 61.3015H0.0141602Z" fill="#9AAAB4"/>
<path d="M55.1109 43.5237C55.1109 44.5104 54.3162 45.3086 53.3331 45.3086H10.6664C9.68512 45.3086 8.88867 44.5104 8.88867 43.5237V16.7468C8.88867 15.7601 9.68512 14.9619 10.6664 14.9619H53.3331C54.3162 14.9619 55.1109 15.7619 55.1109 16.7468V43.5237Z" fill="#5DADEC"/>
<path d="M58.4997 55.9094L57.1486 52.0427C56.7237 51.2249 56.0197 50.5547 55.0366 50.5547H9.08464C8.1033 50.5547 7.47397 51.28 7.02953 52.3965L5.80641 55.9111C5.41708 56.9707 6.60286 57.696 7.58419 57.696H21.0562C21.0562 57.696 22.722 57.6125 23.0171 56.6151C23.3584 55.4631 23.7549 53.728 23.8402 53.4222C23.9717 52.9529 24.53 52.4782 25.362 52.4782H40.6117C41.5006 52.4782 41.938 52.928 42.0535 53.4845C42.1282 53.8471 42.6082 55.5129 42.8322 56.6525C43.0295 57.6676 45.0029 57.6942 45.0029 57.6942H56.7255C57.7051 57.6942 58.8891 56.8569 58.4997 55.9094Z" fill="#AEBBC1"/>
<path d="M39.7777 59.5913H25.9448C25.2781 59.5913 24.9883 58.9815 25.0843 58.3913C25.1803 57.8029 25.7226 55.2038 25.7652 54.9015C25.8061 54.5975 26.2523 54.2349 26.6968 54.2349H39.1679C39.6959 54.2349 40.039 54.5246 40.1457 55.1042C40.2506 55.6855 40.6826 58.0215 40.7163 58.5549C40.7501 59.09 40.4159 59.5913 39.7777 59.5913Z" fill="#9AAAB4"/>
</g>
<defs>
<clipPath id="clip0_618_247">
<rect width="64" height="64" fill="white" transform="translate(0 0.723633)"/>
</clipPath>
</defs>
</svg>
