<svg width="42" height="26" viewBox="0 0 42 26" fill="none" xmlns="http://www.w3.org/2000/svg">
<g clip-path="url(#clip0_703_806)">
<path d="M26.4873 2.72607H15.5981V22.2895H26.4873V2.72607Z" fill="#FF5A00"/>
<path d="M16.3228 12.5076C16.3228 8.53288 18.1914 5.00517 21.0587 2.72585C18.9485 1.0667 16.2866 0.0639648 13.3831 0.0639648C6.50485 0.0639648 0.939453 5.62936 0.939453 12.5076C0.939453 19.3858 6.50485 24.9512 13.3831 24.9512C16.2866 24.9512 18.9485 23.9485 21.0587 22.2893C18.1874 20.0422 16.3228 16.4823 16.3228 12.5076Z" fill="#EB001B"/>
<path d="M41.1778 12.5076C41.1778 19.3858 35.6124 24.9512 28.7342 24.9512C25.8307 24.9512 23.1688 23.9485 21.0586 22.2893C23.9621 20.006 25.7944 16.4823 25.7944 12.5076C25.7944 8.53288 23.9259 5.00517 21.0586 2.72585C23.1647 1.0667 25.8266 0.0639648 28.7301 0.0639648C35.6124 0.0639648 41.1778 5.66561 41.1778 12.5076Z" fill="#F79E1B"/>
</g>
<defs>
<clipPath id="clip0_703_806">
<rect width="40.625" height="25" fill="white" transform="translate(0.939453 0.0639648)"/>
</clipPath>
</defs>
</svg>
