<svg width="50" height="51" viewBox="0 0 50 51" fill="none" xmlns="http://www.w3.org/2000/svg">
<rect y="0.723633" width="50" height="50" rx="25" fill="#E8F2EE"/>
<path d="M19.1668 16.3903V35.057H30.8335V16.3903H19.1668ZM18.0002 14.057H32.0002C32.3096 14.057 32.6063 14.1799 32.8251 14.3987C33.0439 14.6175 33.1668 14.9143 33.1668 15.2237V36.2237C33.1668 36.5331 33.0439 36.8298 32.8251 37.0486C32.6063 37.2674 32.3096 37.3903 32.0002 37.3903H18.0002C17.6907 37.3903 17.394 37.2674 17.1752 37.0486C16.9564 36.8298 16.8335 36.5331 16.8335 36.2237V15.2237C16.8335 14.9143 16.9564 14.6175 17.1752 14.3987C17.394 14.1799 17.6907 14.057 18.0002 14.057ZM25.0002 31.557C25.3096 31.557 25.6063 31.6799 25.8251 31.8987C26.0439 32.1175 26.1668 32.4143 26.1668 32.7237C26.1668 33.0331 26.0439 33.3298 25.8251 33.5486C25.6063 33.7674 25.3096 33.8903 25.0002 33.8903C24.6907 33.8903 24.394 33.7674 24.1752 33.5486C23.9564 33.3298 23.8335 33.0331 23.8335 32.7237C23.8335 32.4143 23.9564 32.1175 24.1752 31.8987C24.394 31.6799 24.6907 31.557 25.0002 31.557V31.557Z" fill="#5BB5A2"/>
</svg>
