<svg width="94" height="26" viewBox="0 0 94 26" fill="none" xmlns="http://www.w3.org/2000/svg">
<g clip-path="url(#clip0_703_794)">
<path d="M35.0085 5.17676H29.8274C29.4728 5.17676 29.1713 5.43433 29.116 5.78433L27.0206 19.0699C26.9789 19.3321 27.1819 19.5684 27.4478 19.5684H29.9213C30.2759 19.5684 30.5774 19.3109 30.6327 18.9601L31.1978 15.3768C31.2524 15.026 31.5547 14.7684 31.9085 14.7684H33.5486C36.9615 14.7684 38.9312 13.1169 39.4456 9.84418C39.6774 8.41236 39.4554 7.28736 38.785 6.49949C38.0486 5.63433 36.7425 5.17676 35.0085 5.17676ZM35.6062 10.029C35.3228 11.8881 33.9024 11.8881 32.5289 11.8881H31.7471L32.2956 8.41615C32.3282 8.2063 32.51 8.05176 32.7221 8.05176H33.0804C34.016 8.05176 34.8986 8.05176 35.3547 8.58509C35.6266 8.90327 35.71 9.376 35.6062 10.029Z" fill="#253B80"/>
<path d="M50.4956 9.96917H48.0145C47.8031 9.96917 47.6206 10.1237 47.588 10.3336L47.4781 11.0275L47.3047 10.776C46.7675 9.99645 45.5698 9.73584 44.3744 9.73584C41.6327 9.73584 39.291 11.8124 38.835 14.7252C38.5978 16.1783 38.935 17.5677 39.7592 18.5366C40.5153 19.4275 41.5971 19.7987 42.8842 19.7987C45.0933 19.7987 46.3183 18.3783 46.3183 18.3783L46.2077 19.0677C46.166 19.3313 46.3691 19.5677 46.6334 19.5677H48.8683C49.2236 19.5677 49.5236 19.3101 49.5797 18.9593L50.9206 10.4677C50.963 10.2063 50.7607 9.96917 50.4956 9.96917ZM47.0372 14.798C46.7978 16.2154 45.6728 17.1669 44.238 17.1669C43.5175 17.1669 42.9418 16.9358 42.5721 16.498C42.2054 16.0631 42.066 15.4442 42.1827 14.7548C42.4062 13.3495 43.5501 12.3669 44.963 12.3669C45.6675 12.3669 46.2403 12.601 46.6175 13.0427C46.9956 13.4889 47.1456 14.1116 47.0372 14.798Z" fill="#253B80"/>
<path d="M63.709 9.96924H61.2158C60.9779 9.96924 60.7544 10.0874 60.6196 10.2851L57.1809 15.3503L55.7234 10.4829C55.6317 10.1783 55.3506 9.96924 55.0325 9.96924H52.5825C52.2847 9.96924 52.0779 10.2601 52.1726 10.5405L54.9188 18.5995L52.337 22.2442C52.134 22.5314 52.3385 22.9261 52.6893 22.9261H55.1794C55.4158 22.9261 55.637 22.8109 55.7711 22.617L64.0635 10.6473C64.262 10.3609 64.0582 9.96924 63.709 9.96924Z" fill="#253B80"/>
<path d="M71.9635 5.17676H66.7817C66.4279 5.17676 66.1264 5.43433 66.0711 5.78433L63.9757 19.0699C63.934 19.3321 64.137 19.5684 64.4014 19.5684H67.0605C67.3075 19.5684 67.5188 19.3881 67.5575 19.1427L68.1522 15.3768C68.2067 15.026 68.509 14.7684 68.8628 14.7684H70.5022C73.9158 14.7684 75.8847 13.1169 76.3999 9.84418C76.6325 8.41236 76.409 7.28736 75.7385 6.49949C75.0029 5.63433 73.6976 5.17676 71.9635 5.17676ZM72.5613 10.029C72.2787 11.8881 70.8582 11.8881 69.484 11.8881H68.7029L69.2522 8.41615C69.2847 8.2063 69.465 8.05176 69.6779 8.05176H70.0363C70.9711 8.05176 71.8544 8.05176 72.3105 8.58509C72.5825 8.90327 72.665 9.376 72.5613 10.029Z" fill="#179BD7"/>
<path d="M87.4498 9.96917H84.9703C84.7574 9.96917 84.5764 10.1237 84.5445 10.3336L84.4347 11.0275L84.2605 10.776C83.7233 9.99645 82.5264 9.73584 81.3309 9.73584C78.5892 9.73584 76.2483 11.8124 75.7923 14.7252C75.5559 16.1783 75.8915 17.5677 76.7158 18.5366C77.4733 19.4275 78.5536 19.7987 79.8408 19.7987C82.0498 19.7987 83.2748 18.3783 83.2748 18.3783L83.1642 19.0677C83.1226 19.3313 83.3256 19.5677 83.5915 19.5677H85.8256C86.1794 19.5677 86.4809 19.3101 86.5362 18.9593L87.8779 10.4677C87.9188 10.2063 87.7158 9.96917 87.4498 9.96917ZM83.9915 14.798C83.7536 16.2154 82.6271 17.1669 81.1923 17.1669C80.4733 17.1669 79.8961 16.9358 79.5264 16.498C79.1597 16.0631 79.0218 15.4442 79.137 14.7548C79.362 13.3495 80.5044 12.3669 81.9173 12.3669C82.6218 12.3669 83.1945 12.601 83.5718 13.0427C83.9514 13.4889 84.1014 14.1116 83.9915 14.798Z" fill="#179BD7"/>
<path d="M90.3751 5.54142L88.2486 19.0702C88.2069 19.3323 88.41 19.5687 88.6744 19.5687H90.8122C91.1675 19.5687 91.4691 19.3111 91.5236 18.9604L93.6206 5.67551C93.6622 5.41339 93.4592 5.17627 93.1948 5.17627H90.8009C90.5895 5.17703 90.4077 5.33157 90.3751 5.54142Z" fill="#179BD7"/>
<path d="M5.50447 22.1504L5.90068 19.6338L5.0181 19.6133H0.803711L3.7325 1.04287C3.74159 0.986813 3.77113 0.934541 3.81432 0.897419C3.8575 0.860298 3.9128 0.839844 3.97038 0.839844H11.0764C13.4355 0.839844 15.0636 1.33075 15.9136 2.29969C16.312 2.75424 16.5658 3.22924 16.6886 3.75196C16.8173 4.30045 16.8196 4.95575 16.6939 5.755L16.6848 5.81333V6.32545L17.0833 6.55121C17.4189 6.72924 17.6855 6.93303 17.8901 7.16636C18.231 7.555 18.4514 8.04893 18.5446 8.63454C18.6408 9.23681 18.609 9.95348 18.4514 10.7648C18.2696 11.6982 17.9757 12.5111 17.5787 13.1762C17.2136 13.7891 16.7484 14.2974 16.1961 14.6914C15.6689 15.0656 15.0423 15.3497 14.334 15.5315C13.6476 15.7103 12.8651 15.8004 12.0067 15.8004H11.4537C11.0583 15.8004 10.6742 15.9429 10.3726 16.1982C10.0704 16.4588 9.87038 16.8148 9.80901 17.2042L9.76735 17.4308L9.06735 21.8664L9.03553 22.0292C9.02719 22.0808 9.0128 22.1065 8.99159 22.1239C8.97265 22.1398 8.94538 22.1504 8.91886 22.1504H5.50447Z" fill="#253B80"/>
<path d="M17.4605 5.87207C17.4392 6.00768 17.415 6.14631 17.3877 6.28874C16.4506 11.1001 13.2446 12.7622 9.14986 12.7622H7.06501C6.56425 12.7622 6.14228 13.1259 6.06425 13.6198L4.99683 20.3895L4.69455 22.3084C4.6438 22.6327 4.8938 22.9251 5.22107 22.9251H8.9188C9.35667 22.9251 9.72864 22.6069 9.79758 22.1751L9.83395 21.9872L10.5302 17.569L10.5749 17.3266C10.643 16.8933 11.0158 16.5751 11.4536 16.5751H12.0067C15.5892 16.5751 18.3938 15.1206 19.2135 10.9115C19.5559 9.15313 19.3786 7.68495 18.4726 6.65237C18.1983 6.34101 17.8582 6.08268 17.4605 5.87207Z" fill="#179BD7"/>
<path d="M16.4804 5.48138C16.3372 5.43972 16.1895 5.40184 16.0379 5.36775C15.8857 5.33441 15.7296 5.30487 15.569 5.27911C15.0069 5.1882 14.391 5.14502 13.7311 5.14502H8.16142C8.0243 5.14502 7.894 5.17608 7.77733 5.23214C7.52051 5.35563 7.3296 5.59881 7.28339 5.89653L6.09854 13.4011L6.06445 13.62C6.14248 13.1261 6.56445 12.7624 7.06521 12.7624H9.15006C13.2448 12.7624 16.4508 11.0996 17.3879 6.28896C17.416 6.14653 17.4395 6.0079 17.4607 5.87229C17.2235 5.74653 16.9667 5.63896 16.6902 5.54729C16.622 5.52457 16.5516 5.5026 16.4804 5.48138Z" fill="#222D65"/>
<path d="M7.28332 5.89654C7.32954 5.59881 7.52044 5.35563 7.77726 5.2329C7.89469 5.17684 8.02423 5.14578 8.16135 5.14578H13.7311C14.3909 5.14578 15.0068 5.18897 15.5689 5.27987C15.7295 5.30563 15.8856 5.33518 16.0379 5.36851C16.1894 5.4026 16.3371 5.44048 16.4803 5.48215C16.5515 5.50336 16.622 5.52533 16.6909 5.5473C16.9674 5.63897 17.2242 5.7473 17.4614 5.8723C17.7401 4.09427 17.4591 2.88366 16.4977 1.78745C15.4379 0.580632 13.525 0.0639648 11.0773 0.0639648H3.9712C3.4712 0.0639648 3.04469 0.427601 2.96742 0.922298L0.00756729 19.6837C-0.050766 20.0549 0.235598 20.3897 0.60984 20.3897H4.99696L6.09848 13.4011L7.28332 5.89654Z" fill="#253B80"/>
</g>
<defs>
<clipPath id="clip0_703_794">
<rect width="93.9394" height="25" fill="white" transform="translate(0 0.0639648)"/>
</clipPath>
</defs>
</svg>
