<svg width="50" height="51" viewBox="0 0 50 51" fill="none" xmlns="http://www.w3.org/2000/svg">
<rect y="0.0644531" width="50" height="50" rx="25" fill="#E8F2EE"/>
<path d="M35.5 30.2211V34.3465C35.5001 34.6418 35.3882 34.9263 35.1869 35.1423C34.9855 35.3584 34.7096 35.4901 34.415 35.5108C33.9052 35.5458 33.4887 35.5645 33.1667 35.5645C22.8568 35.5645 14.5 27.2076 14.5 16.8978C14.5 16.5758 14.5175 16.1593 14.5537 15.6495C14.5743 15.3548 14.706 15.079 14.9221 14.8776C15.1382 14.6762 15.4226 14.5643 15.718 14.5645H19.8433C19.988 14.5643 20.1276 14.618 20.235 14.715C20.3424 14.812 20.4099 14.9455 20.4243 15.0895C20.4512 15.3578 20.4757 15.5713 20.499 15.7335C20.7309 17.3515 21.206 18.9253 21.9083 20.4013C22.0192 20.6346 21.9468 20.9135 21.7368 21.0628L19.2192 22.8618C20.7585 26.4486 23.617 29.3071 27.2038 30.8465L29.0005 28.3335C29.0739 28.2308 29.1811 28.1571 29.3032 28.1254C29.4254 28.0936 29.5549 28.1057 29.669 28.1596C31.1449 28.8606 32.7182 29.3346 34.3357 29.5655C34.4978 29.5888 34.7113 29.6145 34.9773 29.6401C35.1211 29.6549 35.2543 29.7225 35.3511 29.8298C35.4479 29.9371 35.5013 30.0766 35.5012 30.2211H35.5Z" fill="#5BB5A2"/>
</svg>
