<svg width="56" height="57" viewBox="0 0 56 57" fill="none" xmlns="http://www.w3.org/2000/svg">
<g clip-path="url(#clip0_618_271)">
<path d="M46.6669 37.7893C46.5228 37.9343 46.3514 38.0493 46.1627 38.1278C45.9739 38.2063 45.7715 38.2467 45.5671 38.2467C45.3627 38.2467 45.1603 38.2063 44.9716 38.1278C44.7828 38.0493 44.6115 37.9343 44.4673 37.7893L42.2678 35.5898C42.1228 35.4456 42.0078 35.2743 41.9293 35.0855C41.8508 34.8968 41.8104 34.6944 41.8104 34.49C41.8104 34.2856 41.8508 34.0832 41.9293 33.8944C42.0078 33.7057 42.1228 33.5343 42.2678 33.3902L46.6669 28.9911C46.8112 28.8465 46.9826 28.7318 47.1714 28.6535C47.3601 28.5753 47.5624 28.535 47.7667 28.535C47.971 28.535 48.1732 28.5753 48.362 28.6535C48.5507 28.7318 48.7221 28.8465 48.8664 28.9911L51.066 31.1906C51.2109 31.3348 51.326 31.5061 51.4045 31.6949C51.483 31.8836 51.5234 32.086 51.5234 32.2904C51.5234 32.4948 51.483 32.6972 51.4045 32.886C51.326 33.0747 51.2109 33.2461 51.066 33.3902L46.6669 37.7893ZM23.3335 14.456C23.1894 14.6009 23.0181 14.716 22.8293 14.7945C22.6406 14.873 22.4382 14.9134 22.2338 14.9134C22.0294 14.9134 21.827 14.873 21.6382 14.7945C21.4495 14.716 21.2781 14.6009 21.134 14.456L18.9344 12.2564C18.7895 12.1123 18.6745 11.9409 18.596 11.7522C18.5175 11.5634 18.4771 11.3611 18.4771 11.1566C18.4771 10.9522 18.5175 10.7498 18.596 10.5611C18.6745 10.3724 18.7895 10.201 18.9344 10.0569L23.3335 5.65775C23.4779 5.51317 23.6493 5.39847 23.838 5.3202C24.0267 5.24194 24.229 5.20166 24.4333 5.20166C24.6376 5.20166 24.8399 5.24194 25.0286 5.3202C25.2173 5.39847 25.3888 5.51317 25.5331 5.65775L27.7327 7.85731C27.8776 8.00143 27.9926 8.1728 28.0711 8.36154C28.1496 8.55028 28.19 8.75267 28.19 8.95708C28.19 9.1615 28.1496 9.36389 28.0711 9.55263C27.9926 9.74137 27.8776 9.91273 27.7327 10.0569L23.3335 14.456Z" fill="#66757F"/>
<path d="M3.11102 34.9459C6.22213 34.9459 20.2221 36.5015 20.2221 36.5015C20.2221 36.5015 21.7777 50.5015 21.7777 53.6126C21.7777 56.7237 18.6666 56.7237 17.111 55.1681C15.5555 53.6126 10.8888 45.8348 10.8888 45.8348C10.8888 45.8348 3.11102 41.1681 1.55546 39.6126C-9.07779e-05 38.057 -9.07779e-05 34.9459 3.11102 34.9459ZM6.22213 10.1177C10.8888 10.057 45.111 11.6126 45.111 11.6126C45.111 11.6126 46.5484 45.8348 46.6075 50.5015C46.6666 55.1681 42.3095 56.7268 40.5999 50.503C38.8904 44.2793 32.6666 24.057 32.6666 24.057C32.6666 24.057 10.9588 17.1861 6.21435 16.1206C-9.10163e-05 14.7237 1.55391 10.1768 6.22213 10.1177Z" fill="#55ACEE"/>
<path d="M41.9998 5.39031C45.1109 2.2792 52.8887 0.723642 54.4442 2.2792C55.9998 3.83475 54.4442 11.6125 51.3331 14.7236C48.222 17.8348 21.7776 42.7236 21.7776 42.7236C21.7776 42.7236 11.6665 49.7236 9.33312 47.3903C6.99979 45.057 13.9998 34.9459 13.9998 34.9459C13.9998 34.9459 38.8887 8.50142 41.9998 5.39031Z" fill="#CCD6DD"/>
<path d="M21.7777 34.9459C21.7777 34.9459 22.5554 35.7237 15.5554 42.7237C8.55544 49.7237 7.77766 48.9459 7.77766 48.9459C7.77766 48.9459 6.99989 48.1682 13.9999 41.1682C20.9999 34.1682 21.7777 34.9459 21.7777 34.9459ZM45.111 6.94594C46.3487 6.94594 47.5357 7.4376 48.4108 8.31277C49.286 9.18794 49.7777 10.3749 49.7777 11.6126H51.0299C51.2072 11.1226 51.3332 10.6093 51.3332 10.057C51.3332 8.81937 50.8416 7.63239 49.9664 6.75722C49.0912 5.88205 47.9042 5.39038 46.6666 5.39038C46.1143 5.39038 45.601 5.51638 45.111 5.69371V6.94594Z" fill="#66757F"/>
</g>
<defs>
<clipPath id="clip0_618_271">
<rect width="56" height="56" fill="white" transform="translate(0 0.723633)"/>
</clipPath>
</defs>
</svg>
