<svg width="116" height="21" viewBox="0 0 116 21" fill="none" xmlns="http://www.w3.org/2000/svg">
<path d="M10.0001 15.7805L4.12259 19.0705L5.43509 12.4638L0.489258 7.89047L7.17843 7.09714L10.0001 0.980469L12.8218 7.09714L19.5109 7.89047L14.5651 12.4638L15.8776 19.0705L10.0001 15.7805Z" fill="#5BB5A2"/>
<path d="M34.0001 15.7805L28.1226 19.0705L29.4351 12.4638L24.4893 7.89047L31.1784 7.09714L34.0001 0.980469L36.8218 7.09714L43.5109 7.89047L38.5651 12.4638L39.8776 19.0705L34.0001 15.7805Z" fill="#5BB5A2"/>
<path d="M58.0001 15.7805L52.1226 19.0705L53.4351 12.4638L48.4893 7.89047L55.1784 7.09714L58.0001 0.980469L60.8218 7.09714L67.5109 7.89047L62.5651 12.4638L63.8776 19.0705L58.0001 15.7805Z" fill="#5BB5A2"/>
<path d="M82.0001 15.7805L76.1226 19.0705L77.4351 12.4638L72.4893 7.89047L79.1784 7.09714L82.0001 0.980469L84.8218 7.09714L91.5109 7.89047L86.5651 12.4638L87.8776 19.0705L82.0001 15.7805Z" fill="#5BB5A2"/>
<path d="M106 15.7805L100.123 19.0705L101.435 12.4638L96.4893 7.89047L103.178 7.09714L106 0.980469L108.822 7.09714L115.511 7.89047L110.565 12.4638L111.878 19.0705L106 15.7805Z" fill="#5BB5A2"/>
</svg>
