<svg width="107" height="31" viewBox="0 0 107 31" fill="none" xmlns="http://www.w3.org/2000/svg">
<g clip-path="url(#clip0_703_765)">
<path d="M23.2052 6.24597C23.1848 6.09695 23.0546 6.01428 22.9465 6.00528C22.8393 5.99628 20.7386 5.96436 20.7386 5.96436C20.7386 5.96436 18.9818 4.25827 18.8082 4.08471C18.6347 3.91116 18.2958 3.96355 18.164 4.00285C18.1623 4.00367 17.834 4.10518 17.2815 4.27628C17.189 3.97665 17.053 3.60825 16.859 3.23822C16.2336 2.04462 15.3175 1.41343 14.2106 1.4118C14.209 1.4118 14.2082 1.4118 14.2066 1.4118C14.1296 1.4118 14.0535 1.41917 13.9765 1.42571C13.9438 1.38642 13.911 1.34794 13.8767 1.31028C13.3944 0.79453 12.7764 0.543202 12.0355 0.565306C10.6061 0.606238 9.18249 1.63856 8.02818 3.47236C7.21607 4.76256 6.59797 6.38352 6.42279 7.63851C4.78137 8.14688 3.63361 8.50216 3.60823 8.51037C2.77975 8.77069 2.75356 8.79606 2.64549 9.5771C2.56527 10.1673 0.397461 26.9302 0.397461 26.9302L18.5643 30.0722L26.4381 28.1147C26.4381 28.1147 23.2257 6.39498 23.2052 6.24597ZM16.3719 4.55789C15.9536 4.68724 15.4779 4.8346 14.9622 4.99424C14.9515 4.27055 14.8656 3.2636 14.5283 2.39336C15.613 2.59885 16.1468 3.82602 16.3719 4.55789ZM14.0117 5.28896C13.0596 5.58365 12.0207 5.90539 10.9786 6.22796C11.2717 5.10558 11.8276 3.98811 12.5103 3.25541C12.7641 2.9828 13.1194 2.67908 13.5402 2.50552C13.9356 3.33073 14.0215 4.49895 14.0117 5.28896ZM12.0641 1.51658C12.3998 1.50922 12.6822 1.5829 12.9237 1.74172C12.5373 1.94229 12.164 2.23045 11.8136 2.60622C10.9057 3.58042 10.2099 5.09248 9.93235 6.55133C9.06702 6.81901 8.22053 7.08183 7.44117 7.32252C7.93321 5.02617 9.85784 1.58044 12.0641 1.51658Z" fill="#95BF47"/>
<path d="M22.9472 6.00635C22.84 5.99735 20.7393 5.96544 20.7393 5.96544C20.7393 5.96544 18.9825 4.25934 18.8089 4.08579C18.7443 4.02111 18.6567 3.98755 18.5649 3.97363L18.5658 30.0716L26.4388 28.115C26.4388 28.115 23.2264 6.39606 23.2059 6.24704C23.1854 6.09803 23.0545 6.01535 22.9472 6.00635Z" fill="#5E8E3E"/>
<path d="M14.2008 10.0545L13.2864 13.4757C13.2864 13.4757 12.2663 13.0115 11.0572 13.0876C9.28392 13.1998 9.26508 14.3181 9.28313 14.5989C9.37972 16.1289 13.405 16.463 13.631 20.047C13.8087 22.8665 12.1353 24.7953 9.72438 24.9475C6.83041 25.1301 5.2373 23.4232 5.2373 23.4232L5.85049 20.8149C5.85049 20.8149 7.45421 22.0249 8.73787 21.9439C9.5762 21.8907 9.8758 21.2087 9.84551 20.7265C9.71946 18.7306 6.44154 18.8485 6.23444 15.569C6.06005 12.8093 7.87259 10.0128 11.8717 9.76064C13.4124 9.66159 14.2008 10.0545 14.2008 10.0545Z" fill="white"/>
<path d="M36.8068 17.2181C35.9014 16.7268 35.4361 16.3127 35.4361 15.7435C35.4361 15.0193 36.0825 14.554 37.0918 14.554C38.2667 14.554 39.3158 15.0452 39.3158 15.0452L40.1432 12.5102C40.1432 12.5102 39.3824 11.915 37.1429 11.915C34.0265 11.915 31.8667 13.6997 31.8667 16.2088C31.8667 17.6314 32.8752 18.7178 34.2206 19.4932C35.307 20.1136 35.6952 20.5537 35.6952 21.2C35.6952 21.8724 35.152 22.4156 34.1435 22.4156C32.6405 22.4156 31.2211 21.6393 31.2211 21.6393L30.3418 24.1743C30.3418 24.1743 31.6531 25.0537 33.8593 25.0537C37.0666 25.0537 39.3686 23.476 39.3686 20.6308C39.3678 19.1059 38.2042 18.0195 36.8068 17.2181Z" fill="black"/>
<path d="M49.584 11.8901C48.0062 11.8901 46.7647 12.6404 45.8082 13.778L45.7562 13.752L47.1268 6.58789H43.5573L40.0918 24.8217H43.6613L44.8508 18.589C45.3161 16.2351 46.5316 14.7873 47.67 14.7873C48.4714 14.7873 48.7825 15.3305 48.7825 16.1067C48.7825 16.598 48.7305 17.1932 48.6273 17.6844L47.2827 24.8226H50.8524L52.2486 17.4514C52.404 16.6751 52.5078 15.7446 52.5078 15.1234C52.5063 13.1057 51.446 11.8901 49.584 11.8901Z" fill="black"/>
<path d="M60.576 11.8901C56.2821 11.8901 53.438 15.7698 53.438 20.0887C53.438 22.856 55.1445 25.08 58.3521 25.08C62.5678 25.08 65.4129 21.3043 65.4129 16.8814C65.4129 14.3212 63.9124 11.8901 60.576 11.8901ZM58.8173 22.3395C57.6016 22.3395 57.0842 21.3051 57.0842 20.0116C57.0842 17.9686 58.145 14.6322 60.0847 14.6322C61.3521 14.6322 61.7652 15.7186 61.7652 16.7791C61.7652 18.9771 60.7059 22.3395 58.8173 22.3395Z" fill="black"/>
<path d="M74.5427 11.8901C72.1333 11.8901 70.7661 14.011 70.7661 14.011H70.715L70.922 12.0972H67.7666C67.6117 13.3907 67.3265 15.3557 67.0427 16.8303L64.5596 29.891H68.1291L69.1112 24.6147H69.1894C69.1894 24.6147 69.9217 25.08 71.2845 25.08C75.4742 25.08 78.2155 20.7871 78.2155 16.4413C78.2155 14.0371 77.1546 11.8901 74.5427 11.8901ZM71.1286 22.3907C70.202 22.3907 69.6537 21.8734 69.6537 21.8734L70.2488 18.5371C70.6629 16.313 71.8265 14.8384 73.0683 14.8384C74.1547 14.8384 74.4906 15.8469 74.4906 16.8043C74.4906 19.1062 73.1199 22.3907 71.1286 22.3907Z" fill="black"/>
<path d="M83.3105 6.76904C82.173 6.76904 81.2676 7.6744 81.2676 8.83796C81.2676 9.89844 81.9399 10.6227 82.9486 10.6227H83.0002C84.1127 10.6227 85.0692 9.87242 85.0953 8.5538C85.0953 7.51929 84.3969 6.76904 83.3105 6.76904Z" fill="black"/>
<path d="M78.3193 24.8214H81.8879L84.3198 12.1748H80.7243L78.3193 24.8214Z" fill="black"/>
<path d="M93.3981 12.149H90.915L91.0438 11.5539C91.2509 10.3383 91.9753 9.25189 93.165 9.25189C93.7999 9.25189 94.3025 9.43297 94.3025 9.43297L95.0009 6.63977C95.0009 6.63977 94.3802 6.32959 93.0607 6.32959C91.7933 6.32959 90.5269 6.6917 89.5694 7.51911C88.3537 8.55362 87.7846 10.0533 87.5004 11.5539L87.3976 12.149H85.7417L85.2243 14.8392H86.8802L84.9922 24.8225H88.5617L90.4497 14.8392H92.9068L93.3981 12.149Z" fill="black"/>
<path d="M101.984 12.1752C101.984 12.1752 99.7529 17.7965 98.7511 20.865H98.699C98.6311 19.8768 97.8197 12.1752 97.8197 12.1752H94.0692L96.2169 23.7873C96.269 24.0455 96.243 24.2014 96.1392 24.3824C95.7246 25.1839 95.0267 25.9602 94.199 26.5294C93.5267 27.0206 92.7767 27.3308 92.1821 27.5378L93.1648 30.5641C93.8892 30.409 95.3887 29.8138 96.6561 28.6242C98.2859 27.0985 99.7854 24.7446 101.337 21.5373L105.708 12.1743H101.984V12.1752Z" fill="black"/>
</g>
<defs>
<clipPath id="clip0_703_765">
<rect width="105.738" height="30" fill="white" transform="translate(0.397461 0.563965)"/>
</clipPath>
</defs>
</svg>
