<svg width="66" height="31" viewBox="0 0 66 31" fill="none" xmlns="http://www.w3.org/2000/svg">
<g clip-path="url(#clip0_703_778)">
<path d="M39.4409 13.6106H37.8082C37.7746 13.477 37.7496 13.322 37.733 13.1461C37.6997 12.8037 37.6997 12.4588 37.733 12.1164C37.7496 11.9408 37.7746 11.786 37.8082 11.6516H41.8772V24.5363C41.6735 24.5717 41.4681 24.5967 41.2618 24.6112C41.057 24.6269 40.8516 24.6352 40.6461 24.6361C40.4493 24.6348 40.2526 24.6265 40.0563 24.6112C39.8502 24.5966 39.6449 24.5714 39.4413 24.5359V13.6101V13.6104L39.4409 13.6106ZM53.606 16.8509C53.606 16.3819 53.5431 15.9341 53.4179 15.5068C53.2921 15.0801 53.1074 14.7077 52.8653 14.3893C52.622 14.0715 52.3125 13.8159 51.9357 13.6235C51.5591 13.4309 51.111 13.3345 50.592 13.3345C49.5707 13.3345 48.7878 13.6447 48.2437 14.2639C47.6995 14.8833 47.369 15.7456 47.2516 16.8509H53.6061H53.606ZM47.2266 18.7093C47.2601 20.1158 47.6243 21.1457 48.3192 21.7984C49.0138 22.4513 50.0395 22.7783 51.3958 22.7783C52.5843 22.7783 53.7146 22.5687 54.7862 22.1501C54.9198 22.4013 55.0286 22.7069 55.1124 23.0669C55.1947 23.4174 55.2451 23.7746 55.2631 24.1342C54.7109 24.3692 54.1034 24.5443 53.4425 24.6618C52.7807 24.7786 52.0482 24.8376 51.245 24.8376C50.0725 24.8376 49.0677 24.6738 48.231 24.3476C47.3936 24.0208 46.703 23.5603 46.1588 22.9662C45.6147 22.3719 45.2169 21.6686 44.9657 20.8563C44.7147 20.0445 44.5888 19.1528 44.5888 18.1816C44.5888 17.2273 44.7101 16.3355 44.953 15.5065C45.1954 14.6782 45.5687 13.9581 46.0705 13.3469C46.573 12.7355 47.205 12.2501 47.9669 11.8901C48.7284 11.5301 49.6283 11.3499 50.6669 11.3499C51.5542 11.3499 52.3328 11.5008 53.0027 11.8021C53.6721 12.1034 54.2332 12.5179 54.6855 13.0453C55.1374 13.5729 55.4807 14.2008 55.7152 14.9288C55.9494 15.6574 56.067 16.4484 56.067 17.3026C56.067 17.5371 56.0581 17.7839 56.0415 18.0433C56.0278 18.2653 56.0111 18.4872 55.9915 18.7088H47.2261L47.2263 18.7092L47.2266 18.7093ZM58.8061 11.6516C58.9809 11.6199 59.1568 11.5948 59.3335 11.5764C59.5005 11.56 59.6767 11.5515 59.8609 11.5515C60.0451 11.5515 60.229 11.56 60.4135 11.5764C60.5976 11.5934 60.7651 11.6186 60.9159 11.6516C60.9657 11.9029 61.016 12.2339 61.066 12.6437C61.1162 13.054 61.1418 13.4012 61.1418 13.686C61.4932 13.1169 61.9579 12.6226 62.5354 12.2039C63.1131 11.7856 63.8539 11.576 64.758 11.576C64.8919 11.576 65.03 11.5805 65.1724 11.5888C65.2942 11.5954 65.416 11.6077 65.5366 11.6262C65.5698 11.7771 65.5955 11.9364 65.612 12.1036C65.6285 12.2708 65.6369 12.4468 65.6369 12.6308C65.6369 12.8319 65.6245 13.0414 65.5994 13.2586C65.5753 13.4686 65.546 13.6779 65.5117 13.8864C65.376 13.853 65.2368 13.8361 65.097 13.8362H64.7577C64.3058 13.8362 63.8745 13.8991 63.4643 14.0245C63.0538 14.1502 62.6856 14.3722 62.3592 14.69C62.033 15.0083 61.7732 15.4438 61.581 15.9964C61.3881 16.5489 61.292 17.2605 61.292 18.1311V24.5359C61.0883 24.5712 60.8829 24.5965 60.6766 24.6111C60.4508 24.6278 60.2456 24.636 60.0615 24.636C59.8561 24.6351 59.6508 24.6268 59.446 24.6111C59.2315 24.5955 59.0178 24.5704 58.8054 24.536V11.6517L58.8061 11.6516ZM41.1789 4.77176C41.1789 5.07238 41.1247 5.37053 41.0187 5.65185C40.7373 5.75782 40.4391 5.81214 40.1384 5.8122H40.1347C39.834 5.81224 39.5357 5.75796 39.2543 5.65198C39.1482 5.37061 39.0938 5.07236 39.0939 4.77163V4.7677C39.0939 4.45788 39.1507 4.16115 39.2537 3.88735C39.5351 3.78123 39.8335 3.72694 40.1343 3.72714H40.1377C40.4477 3.72714 40.7442 3.78399 41.018 3.88735C41.1241 4.16873 41.1784 4.46699 41.1783 4.7677V4.77163H41.1787L41.1789 4.77176ZM44.2478 4.07482H41.8143L43.5349 2.35408C43.2643 1.9741 42.9322 1.64201 42.5521 1.37155L40.8312 3.09229V0.658621C40.6024 0.62013 40.3708 0.600718 40.1387 0.600586H40.1343C39.8982 0.600586 39.667 0.620761 39.4417 0.658621V3.09229L37.7204 1.37142C37.5308 1.50633 37.3529 1.6569 37.1885 1.82155L37.1877 1.82233C37.0233 1.98685 36.8729 2.16476 36.738 2.35421L38.4593 4.07482H36.0252C36.0252 4.07482 35.9673 4.53203 35.9673 4.76836V4.77124C35.9673 5.00757 35.9874 5.23919 36.0253 5.46465H38.4594L36.7379 7.18513C37.0086 7.56506 37.3408 7.89721 37.7208 8.16792L39.4418 6.44731V8.88111C39.6669 8.91884 39.8977 8.93875 40.1335 8.93901H40.1394C40.3712 8.9388 40.6025 8.91943 40.8311 8.88111V6.44731L42.5522 8.16832C42.7418 8.03327 42.9199 7.88271 43.0845 7.71818H43.0849C43.2492 7.55349 43.3996 7.37546 43.5345 7.18591L41.8139 5.46478H44.248C44.2857 5.23945 44.3056 5.00862 44.3056 4.77281V4.76679C44.3056 4.53491 44.2862 4.30369 44.248 4.07508V4.07482H44.2478ZM0.135254 24.1848L6.91656 13.6358H0.938835C0.888791 13.3345 0.863769 12.9999 0.863769 12.6314C0.863769 12.2799 0.889184 11.953 0.939359 11.6515H10.6088L10.7346 11.9786L3.90307 22.5522H10.3074C10.3575 22.8872 10.3828 23.2301 10.3828 23.5816C10.3828 23.917 10.3577 24.235 10.3075 24.5363H0.261018L0.135254 24.1844V24.1848ZM19.7002 18.4831C19.4491 18.4499 19.1309 18.4168 18.7459 18.3829C18.3607 18.3497 18.0343 18.3327 17.7667 18.3327C16.7284 18.3327 15.9373 18.5253 15.3935 18.9104C14.8489 19.2958 14.5773 19.8815 14.5773 20.6685C14.5773 21.1708 14.669 21.5643 14.8533 21.8488C15.0373 22.1339 15.2677 22.3511 15.544 22.5019C15.8204 22.6526 16.1256 22.7448 16.4604 22.7783C16.7951 22.8117 17.1134 22.8284 17.4147 22.8284C17.7999 22.8284 18.1975 22.8074 18.6078 22.7655C19.0178 22.7239 19.382 22.6609 19.7004 22.5772V18.4831H19.7002ZM19.7002 16.0472C19.7002 15.0589 19.4491 14.3724 18.947 13.9873C18.4444 13.6021 17.7162 13.4095 16.7618 13.4095C16.1753 13.4095 15.6273 13.4559 15.1168 13.5479C14.6116 13.6386 14.1124 13.76 13.622 13.9117C13.3037 13.3591 13.1452 12.6982 13.1452 11.9275C13.7137 11.7436 14.3415 11.6013 15.0284 11.5008C15.7148 11.4002 16.3761 11.3499 17.0127 11.3499C18.6869 11.3499 19.9594 11.7311 20.8301 12.4929C21.7005 13.2553 22.1363 14.4733 22.1363 16.1474V24.2097C21.5499 24.3436 20.8385 24.4816 20.0014 24.624C19.155 24.767 18.298 24.8384 17.4396 24.8376C16.6193 24.8376 15.878 24.7625 15.217 24.6117C14.5554 24.4607 13.9945 24.2184 13.5341 23.8831C13.0732 23.5485 12.718 23.1214 12.4664 22.6025C12.2154 22.0833 12.0898 21.4556 12.0898 20.7187C12.0898 19.9989 12.2363 19.3667 12.5293 18.8222C12.8173 18.2843 13.2256 17.8202 13.7225 17.4661C14.2248 17.1066 14.8024 16.8383 15.4554 16.6628C16.1086 16.4868 16.7948 16.3988 17.5148 16.3988C18.0506 16.3988 18.4901 16.4116 18.8335 16.4368C19.1765 16.4617 19.4655 16.491 19.7 16.5246V16.0473L19.7002 16.0472ZM27.3352 22.426C27.6522 22.5432 27.9805 22.6274 28.3148 22.6773C28.6497 22.7277 29.0846 22.7528 29.6209 22.7528C30.2236 22.7528 30.7759 22.6567 31.2781 22.4642C31.7807 22.272 32.2117 21.9745 32.5717 21.5724C32.9317 21.1708 33.2162 20.6646 33.4256 20.0528C33.6348 19.442 33.7397 18.7181 33.7397 17.8805C33.7397 16.5411 33.4924 15.4778 32.9987 14.6908C32.5045 13.9039 31.6966 13.5104 30.5752 13.5104C30.1566 13.5104 29.7544 13.5856 29.3699 13.7365C28.9842 13.8872 28.6413 14.1133 28.3398 14.4146C28.0385 14.7159 27.7958 15.0971 27.6117 15.5575C27.427 16.0184 27.3353 16.5662 27.3353 17.2026V22.4264V22.4262L27.3352 22.426ZM24.8487 11.6513C25.019 11.6178 25.1906 11.5928 25.3636 11.5761C25.5431 11.5595 25.7234 11.5512 25.9037 11.5512C26.0706 11.5512 26.2463 11.5599 26.4308 11.5761C26.6148 11.5932 26.7906 11.6184 26.9583 11.6515C26.9748 11.6855 26.996 11.7897 27.0211 11.9656C27.046 12.1415 27.0712 12.3298 27.0965 12.5305C27.1216 12.7316 27.1467 12.9246 27.1718 13.1082C27.197 13.2927 27.2095 13.4099 27.2095 13.4601C27.3766 13.1925 27.5777 12.9327 27.8122 12.6815C28.0466 12.4303 28.3274 12.2043 28.6539 12.0036C28.9803 11.8025 29.3484 11.6436 29.7589 11.5262C30.1689 11.4091 30.6252 11.35 31.1276 11.35C31.8809 11.35 32.5801 11.4758 33.225 11.727C33.8693 11.9786 34.4215 12.3673 34.8822 12.8948C35.3424 13.4224 35.7023 14.0922 35.9621 14.904C36.2215 15.7168 36.3511 16.6752 36.3511 17.7801C36.3511 19.9902 35.7525 21.7194 34.5551 22.9666C33.3577 24.2141 31.6629 24.8376 29.4695 24.8376C29.101 24.8376 28.7245 24.8124 28.3393 24.7622C27.9539 24.7118 27.6193 24.6447 27.3345 24.5614V30.4637C27.1224 30.4982 26.9088 30.5233 26.6944 30.539C26.4682 30.5554 26.2629 30.5639 26.0787 30.5639C25.8734 30.563 25.6682 30.5547 25.4635 30.539C25.2573 30.5244 25.052 30.4993 24.8483 30.4637V11.6515L24.8487 11.6513Z" fill="#FF4A00"/>
</g>
<defs>
<clipPath id="clip0_703_778">
<rect width="65.5022" height="30" fill="white" transform="translate(0.135254 0.563965)"/>
</clipPath>
</defs>
</svg>
